<?xml version="1.0" encoding="utf-8"?>
<!-- Generator: Adobe Illustrator 21.1.0, SVG Export Plug-In . SVG Version: 6.00 Build 0)  -->
<!DOCTYPE svg PUBLIC "-//W3C//DTD SVG 1.1//EN" "http://www.w3.org/Graphics/SVG/1.1/DTD/svg11.dtd" [
	<!ENTITY ns_extend "http://ns.adobe.com/Extensibility/1.0/">
	<!ENTITY ns_ai "http://ns.adobe.com/AdobeIllustrator/10.0/">
	<!ENTITY ns_graphs "http://ns.adobe.com/Graphs/1.0/">
	<!ENTITY ns_vars "http://ns.adobe.com/Variables/1.0/">
	<!ENTITY ns_imrep "http://ns.adobe.com/ImageReplacement/1.0/">
	<!ENTITY ns_sfw "http://ns.adobe.com/SaveForWeb/1.0/">
	<!ENTITY ns_custom "http://ns.adobe.com/GenericCustomNamespace/1.0/">
	<!ENTITY ns_adobe_xpath "http://ns.adobe.com/XPath/1.0/">
]>
<svg version="1.1" id="Layer_1" xmlns:x="&ns_extend;" xmlns:i="&ns_ai;" xmlns:graph="&ns_graphs;"
	 xmlns="http://www.w3.org/2000/svg" xmlns:xlink="http://www.w3.org/1999/xlink" x="0px" y="0px" viewBox="0 0 80 80"
	 style="enable-background:new 0 0 80 80;" xml:space="preserve">
<style type="text/css">
	.st0{fill:url(#SVGID_1_);}
	.st1{fill:url(#SVGID_2_);}
	.st2{fill:url(#SVGID_3_);}
	.st3{fill:url(#SVGID_4_);}
	.st4{fill:url(#SVGID_5_);}
	.st5{fill:url(#SVGID_6_);}
</style>
<switch>
	<g i:extraneous="self">
		<g>
			<g>
				<linearGradient id="SVGID_1_" gradientUnits="userSpaceOnUse" x1="-36.1172" y1="112.6723" x2="64.4267" y2="16.6611">
					<stop  offset="0" style="stop-color:#00ADDC"/>
					<stop  offset="1" style="stop-color:#6BFBFF"/>
				</linearGradient>
				<path class="st0" d="M40,80c-0.1,0-0.1,0-0.2,0C17.7,79.9-0.1,61.8,0,39.8c0.1-10.7,4.3-20.7,11.9-28.2C19.4,4.1,29.4,0,40,0
					c0.1,0,0.1,0,0.2,0C62.3,0.1,80.1,18.2,80,40.2l0,0C79.9,62.2,62,80,40,80z M40,1.1C18.6,1.1,1.2,18.4,1.1,39.8
					c-0.1,21.5,17.3,39,38.7,39.2c21.5,0.1,39-17.3,39.2-38.7c0.1-21.5-17.3-39-38.7-39.2C40.1,1.1,40.1,1.1,40,1.1z"/>
			</g>
			<g id="music-list_2_">
				<g>
					<linearGradient id="SVGID_2_" gradientUnits="userSpaceOnUse" x1="-31.6784" y1="117.3207" x2="68.8655" y2="21.3095">
						<stop  offset="0" style="stop-color:#00ADDC"/>
						<stop  offset="1" style="stop-color:#6BFBFF"/>
					</linearGradient>
					<path class="st1" d="M66.1,36.6C64.9,23.8,50.4,21.1,50.3,21l-1-0.2v31.5l-0.1,0.4c-1.2-0.7-2.8-1.1-4.7-1.1
						c-1,0-2,0.1-3.1,0.4c-4.6,1-7.9,4.1-7.3,6.9c0.5,2.1,3.1,3.5,6.5,3.5c1,0,2-0.1,3.1-0.3c4.5-1,7.7-3.9,7.3-6.6h0V31.1
						c1.9-0.2,7.7-0.2,13.5,6.2l1.8,2L66.1,36.6z M48.1,57.9c-1.1,1.1-2.9,1.9-4.8,2.4c-0.9,0.2-1.8,0.3-2.7,0.3
						c-2.5,0-4.5-0.9-4.8-2.1c-0.2-0.7,0.3-1.6,1.2-2.4c1.1-1.1,2.9-1.9,4.8-2.4c0.9-0.2,1.8-0.3,2.7-0.3c2.5,0,4.5,0.9,4.8,2.1
						C49.4,56.2,49,57.1,48.1,57.9z M52.1,29.3c-0.4,0-0.8,0-1.1,0V23c2.8,0.8,10.6,3.6,12.8,11C59.1,30,54.6,29.3,52.1,29.3z"/>
				</g>
				<g>
					<linearGradient id="SVGID_3_" gradientUnits="userSpaceOnUse" x1="-47.2216" y1="101.0437" x2="53.3223" y2="5.0325">
						<stop  offset="0" style="stop-color:#00ADDC"/>
						<stop  offset="1" style="stop-color:#6BFBFF"/>
					</linearGradient>
					<rect x="16.9" y="25.8" class="st2" width="27.6" height="1.8"/>
				</g>
				<g>
					<linearGradient id="SVGID_4_" gradientUnits="userSpaceOnUse" x1="-44.1171" y1="104.2948" x2="56.4268" y2="8.2836">
						<stop  offset="0" style="stop-color:#00ADDC"/>
						<stop  offset="1" style="stop-color:#6BFBFF"/>
					</linearGradient>
					<rect x="16.9" y="32" class="st3" width="27.6" height="1.8"/>
				</g>
				<g>
					<linearGradient id="SVGID_5_" gradientUnits="userSpaceOnUse" x1="-41.0126" y1="107.5459" x2="59.5314" y2="11.5347">
						<stop  offset="0" style="stop-color:#00ADDC"/>
						<stop  offset="1" style="stop-color:#6BFBFF"/>
					</linearGradient>
					<rect x="16.9" y="38.2" class="st4" width="27.6" height="1.8"/>
				</g>
				<g>
					<linearGradient id="SVGID_6_" gradientUnits="userSpaceOnUse" x1="-37.908" y1="110.797" x2="62.6359" y2="14.7858">
						<stop  offset="0" style="stop-color:#00ADDC"/>
						<stop  offset="1" style="stop-color:#6BFBFF"/>
					</linearGradient>
					<rect x="16.9" y="44.4" class="st5" width="27.6" height="1.8"/>
				</g>
			</g>
		</g>
	</g>
</switch>
</svg>
