<?xml version="1.0" encoding="utf-8"?>
<!-- Generator: Adobe Illustrator 21.1.0, SVG Export Plug-In . SVG Version: 6.00 Build 0)  -->
<!DOCTYPE svg PUBLIC "-//W3C//DTD SVG 1.1//EN" "http://www.w3.org/Graphics/SVG/1.1/DTD/svg11.dtd" [
	<!ENTITY ns_extend "http://ns.adobe.com/Extensibility/1.0/">
	<!ENTITY ns_ai "http://ns.adobe.com/AdobeIllustrator/10.0/">
	<!ENTITY ns_graphs "http://ns.adobe.com/Graphs/1.0/">
	<!ENTITY ns_vars "http://ns.adobe.com/Variables/1.0/">
	<!ENTITY ns_imrep "http://ns.adobe.com/ImageReplacement/1.0/">
	<!ENTITY ns_sfw "http://ns.adobe.com/SaveForWeb/1.0/">
	<!ENTITY ns_custom "http://ns.adobe.com/GenericCustomNamespace/1.0/">
	<!ENTITY ns_adobe_xpath "http://ns.adobe.com/XPath/1.0/">
]>
<svg version="1.1" id="Layer_1" xmlns:x="&ns_extend;" xmlns:i="&ns_ai;" xmlns:graph="&ns_graphs;"
	 xmlns="http://www.w3.org/2000/svg" xmlns:xlink="http://www.w3.org/1999/xlink" x="0px" y="0px" viewBox="0 0 130 130"
	 style="enable-background:new 0 0 130 130;" xml:space="preserve">
<style type="text/css">
	.st0{fill:#FFFFFF;}
	.st1{font-family:'Roboto-Regular';}
	.st2{font-size:12.9383px;}
	.st3{letter-spacing:3;}
	.st4{fill:url(#SVGID_1_);}
	.st5{fill:url(#SVGID_2_);}
	.st6{fill:url(#SVGID_3_);}
	.st7{fill:url(#SVGID_4_);}
	.st8{fill:url(#SVGID_5_);}
</style>
<switch>
	<g i:extraneous="self">
		<g>
			<text transform="matrix(1 5.460000e-03 -5.460000e-03 1 28.9815 114.5445)" class="st0 st1 st2 st3">ALBUMS</text>
		</g>
		<g id="albums_1_">
			<g>
				<g>
					<g>
						<linearGradient id="SVGID_1_" gradientUnits="userSpaceOnUse" x1="40.2005" y1="91.6848" x2="105.575" y2="9.2761">
							<stop  offset="0" style="stop-color:#00ADDC"/>
							<stop  offset="1" style="stop-color:#0DF9FF"/>
						</linearGradient>
						<path class="st4" d="M47.9,77.6c-2.5,0-4.6-1-5.7-2.9c-1.1-1.9-2.1-5.6,3.7-8.9c1.9-1.1,6.6-1.5,8-1.5l0,1.4
							c-1.8,0-6,0.5-7.4,1.3c-3.6,2.1-4.7,4.5-3.2,7c1.5,2.6,5.6,2.9,9.2,0.9c2.6-1.5,4.1-4.1,4.1-6.9l0-0.3v-27l27.7-5.5l0,27.5
							c0,2.6-1.3,6.3-4.8,8.4c-4.3,2.5-9.3,1.9-11.1-1.4c-1.1-1.9-2.1-5.6,3.7-8.9c1.7-1,5.5-1.5,7.2-1.5l0,1.4
							c-1.6,0-5.2,0.5-6.6,1.3c-2.5,1.4-5,3.8-3.2,7c1.5,2.6,5.6,2.9,9.2,0.9c3-1.8,4.1-4.9,4.1-7.2l0-0.3V36.9l-24.9,4.9v25.8
							l0,0.3c0,3.4-1.8,6.4-4.8,8.2C51.5,77.1,49.6,77.6,47.9,77.6z"/>
					</g>
				</g>
				<g>
					<g>
						<linearGradient id="SVGID_2_" gradientUnits="userSpaceOnUse" x1="38.5588" y1="90.3825" x2="103.9333" y2="7.9737">
							<stop  offset="0" style="stop-color:#00ADDC"/>
							<stop  offset="1" style="stop-color:#0DF9FF"/>
						</linearGradient>
						<polygon class="st5" points="63.7,51.5 63.4,50.2 79.1,46.4 79.4,47.8 						"/>
					</g>
				</g>
			</g>
			<g>
				<linearGradient id="SVGID_3_" gradientUnits="userSpaceOnUse" x1="38.0152" y1="89.9512" x2="103.3897" y2="7.5425">
					<stop  offset="0" style="stop-color:#00ADDC"/>
					<stop  offset="1" style="stop-color:#0DF9FF"/>
				</linearGradient>
				<path class="st6" d="M97.3,87.9H33V23.5h64.4V87.9z M35,85.9h60.4V25.5H35V85.9z"/>
			</g>
			<g>
				<linearGradient id="SVGID_4_" gradientUnits="userSpaceOnUse" x1="19.809" y1="75.5084" x2="85.1836" y2="-6.9004">
					<stop  offset="0" style="stop-color:#00ADDC"/>
					<stop  offset="1" style="stop-color:#0DF9FF"/>
				</linearGradient>
				<rect x="36.4" y="17.3" class="st7" width="57.5" height="2"/>
			</g>
			<g>
				<linearGradient id="SVGID_5_" gradientUnits="userSpaceOnUse" x1="16.994" y1="73.2752" x2="82.3685" y2="-9.1335">
					<stop  offset="0" style="stop-color:#00ADDC"/>
					<stop  offset="1" style="stop-color:#0DF9FF"/>
				</linearGradient>
				<rect x="41.9" y="11.6" class="st8" width="46.6" height="2"/>
			</g>
		</g>
	</g>
</switch>
</svg>
