<?xml version="1.0" encoding="utf-8"?>
<!-- Generator: Adobe Illustrator 21.1.0, SVG Export Plug-In . SVG Version: 6.00 Build 0)  -->
<!DOCTYPE svg PUBLIC "-//W3C//DTD SVG 1.1//EN" "http://www.w3.org/Graphics/SVG/1.1/DTD/svg11.dtd" [
	<!ENTITY ns_extend "http://ns.adobe.com/Extensibility/1.0/">
	<!ENTITY ns_ai "http://ns.adobe.com/AdobeIllustrator/10.0/">
	<!ENTITY ns_graphs "http://ns.adobe.com/Graphs/1.0/">
	<!ENTITY ns_vars "http://ns.adobe.com/Variables/1.0/">
	<!ENTITY ns_imrep "http://ns.adobe.com/ImageReplacement/1.0/">
	<!ENTITY ns_sfw "http://ns.adobe.com/SaveForWeb/1.0/">
	<!ENTITY ns_custom "http://ns.adobe.com/GenericCustomNamespace/1.0/">
	<!ENTITY ns_adobe_xpath "http://ns.adobe.com/XPath/1.0/">
]>
<svg version="1.1" id="Layer_1" xmlns:x="&ns_extend;" xmlns:i="&ns_ai;" xmlns:graph="&ns_graphs;"
	 xmlns="http://www.w3.org/2000/svg" xmlns:xlink="http://www.w3.org/1999/xlink" x="0px" y="0px" viewBox="0 0 130 130"
	 style="enable-background:new 0 0 130 130;" xml:space="preserve">
<style type="text/css">
	.st0{fill:#FFFFFF;}
	.st1{font-family:'Roboto-Regular';}
	.st2{font-size:12.9383px;}
	.st3{letter-spacing:3;}
	.st4{fill:url(#SVGID_1_);}
</style>
<switch>
	<g i:extraneous="self">
		<g>
			<text transform="matrix(1 5.460000e-03 -5.460000e-03 1 18.4457 111.3113)" class="st0 st1 st2 st3">PODCASTS</text>
		</g>
		<g id="volume-4_2_">
			<linearGradient id="SVGID_1_" gradientUnits="userSpaceOnUse" x1="41.0341" y1="92.6105" x2="88.914" y2="3.2961">
				<stop  offset="0" style="stop-color:#00ADDC"/>
				<stop  offset="1" style="stop-color:#0DF9FF"/>
			</linearGradient>
			<path class="st4" d="M48.9,34.5H44c-3.8,0-6.9,3.1-6.9,6.9v14.9c0,3.8,3.1,6.9,6.9,6.9h5.1l29.1,20.6v-69L48.9,34.5z M48.1,60.3
				H44c-2.3,0-4.1-1.8-4.1-4.1V41.3c0-2.3,1.8-4.1,4.1-4.1h4.1V60.3z M75.5,78.3L50.8,60.9V36.5l24.7-16.6V78.3z"/>
		</g>
	</g>
</switch>
</svg>
